<svg id="visual" viewBox="0 0 900 600" width="900" height="600" xmlns="http://www.w3.org/2000/svg" xmlns:xlink="http://www.w3.org/1999/xlink" version="1.1"><path d="M779 600L789.2 587.5C799.3 575 819.7 550 825.5 525C831.3 500 822.7 475 816.3 450C810 425 806 400 807.2 375C808.3 350 814.7 325 814.8 300C815 275 809 250 810.7 225C812.3 200 821.7 175 819.5 150C817.3 125 803.7 100 803.3 75C803 50 816 25 822.5 12.5L829 0L900 0L900 12.5C900 25 900 50 900 75C900 100 900 125 900 150C900 175 900 200 900 225C900 250 900 275 900 300C900 325 900 350 900 375C900 400 900 425 900 450C900 475 900 500 900 525C900 550 900 575 900 587.5L900 600Z" fill="#ffcd32" stroke-linecap="round" stroke-linejoin="miter"></path></svg>