<svg id="visual" viewBox="0 0 2000 8000" width="2000" height="8000" xmlns="http://www.w3.org/2000/svg" xmlns:xlink="http://www.w3.org/1999/xlink" version="1.1"><g><g transform="translate(1235 6127)"><path d="M182.2 -116.6C221.7 -36.8 229.3 50 193.6 110C157.9 170.1 79 203.5 -20.7 215.4C-120.3 227.3 -240.6 217.8 -276.5 157.6C-312.5 97.4 -264.1 -13.6 -203.9 -105.3C-143.8 -196.9 -71.9 -269.4 -0.3 -269.2C71.4 -269.1 142.7 -196.3 182.2 -116.6Z" fill="#aae6d2"></path></g><g transform="translate(886 2790)"><path d="M183.7 -108.8C218.9 -45.1 215 38.4 177.8 92.7C140.7 147 70.4 172.1 -2.6 173.6C-75.5 175.1 -151.1 153 -199.7 92C-248.4 31 -270.1 -68.7 -232.4 -133.9C-194.6 -199.1 -97.3 -229.7 -11.5 -223.1C74.3 -216.5 148.5 -172.5 183.7 -108.8Z" fill="#aae6d2"></path></g><g transform="translate(916 718)"><path d="M272.3 -147.9C328.8 -59.5 333.7 68 279.7 154.1C225.8 240.1 112.9 284.7 25.7 269.9C-61.5 255.1 -123 180.8 -162.6 103.1C-202.2 25.4 -219.7 -55.8 -189 -129.4C-158.2 -203 -79.1 -269 14.4 -277.3C107.9 -285.6 215.9 -236.3 272.3 -147.9Z" fill="#aae6d2"></path></g><g transform="translate(1550 2046)"><path d="M232.8 -123.5C275.8 -59.9 267 44.5 219.5 118.4C172.1 192.2 86 235.4 15.5 226.4C-55.1 217.5 -110.2 156.4 -152.3 85.7C-194.4 15 -223.5 -65.5 -196 -120.1C-168.5 -174.8 -84.2 -203.8 5.3 -206.8C94.9 -209.9 189.8 -187.1 232.8 -123.5Z" fill="#aae6d2"></path></g><g transform="translate(1250 4513)"><path d="M233.7 -142C278 -58.3 271.8 47.5 224.4 119.5C177 191.5 88.5 229.6 -5.2 232.6C-98.8 235.6 -197.7 203.4 -231 139.6C-264.2 75.7 -231.9 -19.7 -182.5 -106.5C-133 -193.3 -66.5 -271.3 14.1 -279.5C94.7 -287.6 189.4 -225.8 233.7 -142Z" fill="#aae6d2"></path></g><g transform="translate(549 6983)"><path d="M182.9 -120.2C220.2 -41 222 44.1 185.6 117.9C149.2 191.7 74.6 254.2 -9 259.4C-92.6 264.7 -185.3 212.5 -215.6 142.2C-245.9 71.9 -214 -16.6 -167.7 -101C-121.4 -185.4 -60.7 -265.7 6.1 -269.2C72.8 -272.7 145.6 -199.4 182.9 -120.2Z" fill="#aae6d2"></path></g><g transform="translate(564 1849)"><path d="M233.7 -135.6C290.7 -36.2 316.3 80.6 272.1 171.5C228 262.4 114 327.4 1.3 326.7C-111.4 325.9 -222.8 259.5 -280.7 160.7C-338.5 61.9 -342.7 -69.2 -287 -167.8C-231.3 -266.4 -115.6 -332.6 -13.7 -324.7C88.3 -316.8 176.7 -234.9 233.7 -135.6Z" fill="#aae6d2"></path></g><g transform="translate(447 3814)"><path d="M172.9 -101.5C220.3 -17.7 252.3 73.2 220.9 149.7C189.5 226.2 94.8 288.3 -2.9 290C-100.5 291.6 -201 232.9 -234.7 155C-268.4 77.1 -235.3 -19.8 -185.1 -105.2C-134.8 -190.6 -67.4 -264.4 -2.3 -263C62.7 -261.7 125.5 -185.2 172.9 -101.5Z" fill="#aae6d2"></path></g><g transform="translate(1483 7388)"><path d="M212.6 -118C253 -52.8 247.6 43.5 204.6 122.9C161.5 202.2 80.8 264.5 -13.3 272.2C-107.4 279.9 -214.8 233 -269.8 146.8C-324.9 60.5 -327.4 -65 -273.7 -137.9C-220 -210.9 -110 -231.2 -12 -224.3C86.1 -217.4 172.2 -183.3 212.6 -118Z" fill="#aae6d2"></path></g><g transform="translate(480 5689)"><path d="M204.5 -94.4C254 -32.4 275.4 69.5 236.6 138.7C197.8 207.9 98.9 244.4 -0.2 244.5C-99.3 244.6 -198.7 208.3 -229.4 143.8C-260 79.3 -222.1 -13.5 -172.4 -75.6C-122.7 -137.8 -61.4 -169.2 8.1 -173.9C77.5 -178.6 155.1 -156.4 204.5 -94.4Z" fill="#aae6d2"></path></g><g transform="translate(1467 3490)"><path d="M154.5 -97.7C186 -34.6 187.5 37.3 156.8 91.9C126 146.6 63 184.1 -6.1 187.6C-75.2 191.1 -150.4 160.7 -193.5 98.9C-236.6 37 -247.7 -56.2 -210.1 -122.8C-172.5 -189.4 -86.2 -229.5 -12.4 -222.4C61.5 -215.2 123 -160.9 154.5 -97.7Z" fill="#aae6d2"></path></g></g></svg>