<svg id="visual" viewBox="0 0 2000 8000" width="2000" height="8000" xmlns="http://www.w3.org/2000/svg" xmlns:xlink="http://www.w3.org/1999/xlink" version="1.1"><g><g transform="translate(193 3074)"><path d="M73.2 -45.7C83.8 -24 73.5 6.3 57.9 31.1C42.2 55.9 21.1 75.2 -3.3 77.1C-27.7 79 -55.4 63.5 -66.3 41.4C-77.3 19.4 -71.4 -9.3 -57.6 -32.8C-43.7 -56.4 -21.9 -74.9 4.7 -77.7C31.3 -80.4 62.7 -67.3 73.2 -45.7Z" fill="#fbe5a3"></path></g><g transform="translate(1222 5151)"><path d="M60.5 -43.8C70 -18.5 63.4 7.1 50.6 27.6C37.9 48.1 18.9 63.3 -7.3 67.5C-33.6 71.8 -67.2 65 -77.1 46.2C-87 27.4 -73.2 -3.5 -56.4 -33C-39.6 -62.5 -19.8 -90.8 2.9 -92.4C25.5 -94.1 51 -69.1 60.5 -43.8Z" fill="#fbe5a3"></path></g><g transform="translate(1269 5658)"><path d="M80.9 -41.5C95.4 -21.7 91 14.1 74.4 36.8C57.7 59.6 28.9 69.1 0 69.1C-28.8 69.1 -57.6 59.5 -69.5 39.5C-81.4 19.5 -76.4 -10.9 -62 -30.6C-47.6 -50.4 -23.8 -59.6 4.7 -62.3C33.3 -65 66.5 -61.3 80.9 -41.5Z" fill="#fbe5a3"></path></g><g transform="translate(607 706)"><path d="M76.8 -37.9C93.7 -15.1 97.4 21.7 82.5 43.3C67.5 64.9 33.7 71.4 7 67.3C-19.8 63.3 -39.6 48.8 -55.5 26.6C-71.5 4.4 -83.6 -25.4 -73.7 -44.2C-63.8 -62.9 -31.9 -70.6 -1 -70C30 -69.4 59.9 -60.7 76.8 -37.9Z" fill="#fbe5a3"></path></g><g transform="translate(1079 939)"><path d="M62.7 -31.5C75.3 -14.4 75.4 14.6 62.9 37.3C50.4 60 25.2 76.4 0.1 76.4C-25.1 76.3 -50.1 59.9 -62.3 37.4C-74.4 14.9 -73.7 -13.6 -61.1 -30.7C-48.6 -47.8 -24.3 -53.4 0.4 -53.6C25.1 -53.9 50.1 -48.6 62.7 -31.5Z" fill="#fbe5a3"></path></g><g transform="translate(951 1963)"><path d="M68.9 -45.3C81.3 -18.3 77.9 12.4 63.8 35.2C49.7 58 24.8 73 2.2 71.7C-20.5 70.5 -41 53 -56.5 29.4C-72.1 5.7 -82.7 -24.1 -72.4 -49.9C-62.2 -75.6 -31.1 -97.4 -1.4 -96.6C28.2 -95.8 56.5 -72.4 68.9 -45.3Z" fill="#fbe5a3"></path></g><g transform="translate(1381 3951)"><path d="M57.7 -35.1C66.3 -18.6 58.7 5.5 46.4 29.5C34.1 53.5 17 77.4 -2.1 78.6C-21.3 79.9 -42.7 58.4 -54.8 34.5C-66.8 10.7 -69.7 -15.6 -59 -33.4C-48.3 -51.2 -24.2 -60.6 0.2 -60.7C24.6 -60.8 49.2 -51.7 57.7 -35.1Z" fill="#fbe5a3"></path></g><g transform="translate(972 3850)"><path d="M55 -28.7C67.9 -9.5 72.5 17.5 62 41.4C51.4 65.3 25.7 86.1 3.1 84.3C-19.5 82.6 -39 58.2 -50.4 33.8C-61.9 9.3 -65.2 -15.1 -55.5 -32.5C-45.7 -49.9 -22.9 -60.2 -0.9 -59.6C21.1 -59.1 42.2 -47.8 55 -28.7Z" fill="#fbe5a3"></path></g><g transform="translate(756 6136)"><path d="M75.5 -49.7C87.1 -23.6 78.2 8.2 62.2 29.4C46.3 50.6 23.1 61.1 -0.5 61.4C-24 61.6 -48.1 51.6 -59.4 33.1C-70.8 14.6 -69.5 -12.4 -57.5 -38.7C-45.5 -65.1 -22.7 -90.9 4.6 -93.5C32 -96.2 64 -75.8 75.5 -49.7Z" fill="#fbe5a3"></path></g><g transform="translate(756 5800)"><path d="M48.9 -26.9C61.4 -6.5 68.3 18.5 59.3 35.5C50.2 52.6 25.1 61.7 0.8 61.2C-23.5 60.7 -46.9 50.7 -59.5 31.6C-72.2 12.5 -74 -15.6 -62.3 -35.6C-50.5 -55.6 -25.3 -67.4 -3.6 -65.3C18.2 -63.3 36.3 -47.4 48.9 -26.9Z" fill="#fbe5a3"></path></g><g transform="translate(291 1327)"><path d="M85.4 -44.7C102 -20.5 100.9 18.5 83.7 44.3C66.5 70 33.2 82.4 5.7 79.2C-21.9 75.9 -43.9 56.9 -56.3 33.9C-68.8 10.9 -71.8 -16.1 -60.8 -37.1C-49.9 -58 -24.9 -72.9 4.7 -75.6C34.4 -78.3 68.8 -68.9 85.4 -44.7Z" fill="#fbe5a3"></path></g><g transform="translate(666 4791)"><path d="M50.9 -24.7C66.7 -2 80.7 26.4 72 47.3C63.2 68.2 31.6 81.6 6.8 77.7C-18.1 73.8 -36.2 52.6 -45.3 31.5C-54.5 10.3 -54.7 -10.7 -45.7 -29.5C-36.6 -48.3 -18.3 -64.8 -0.4 -64.6C17.5 -64.4 35.1 -47.4 50.9 -24.7Z" fill="#fbe5a3"></path></g><g transform="translate(255 3505)"><path d="M57.6 -34.4C66.3 -18.1 59.5 6.2 47.3 23.6C35.1 41.1 17.5 51.8 -7.1 55.9C-31.7 60 -63.5 57.5 -73.5 41.2C-83.6 25 -72 -4.9 -56.1 -25.4C-40.3 -45.8 -20.1 -56.8 2.1 -58C24.4 -59.2 48.8 -50.7 57.6 -34.4Z" fill="#fbe5a3"></path></g><g transform="translate(417 5406)"><path d="M76.1 -41.8C91.2 -17.8 90.9 17.3 75.6 40.7C60.4 64.1 30.2 76 3.8 73.8C-22.5 71.5 -45.1 55.3 -57.9 33.2C-70.8 11.2 -73.9 -16.7 -62.6 -38.5C-51.4 -60.4 -25.7 -76.3 2.4 -77.7C30.5 -79 61 -65.9 76.1 -41.8Z" fill="#fbe5a3"></path></g><g transform="translate(1579 2271)"><path d="M86.2 -49.5C103.5 -19.9 103.5 20 86.3 46.5C69 73 34.5 86.2 1.3 85.5C-31.8 84.7 -63.7 69.9 -80.2 43.8C-96.7 17.7 -97.8 -19.7 -81.9 -48.5C-66 -77.3 -33 -97.5 0.7 -97.9C34.5 -98.4 69 -79 86.2 -49.5Z" fill="#fbe5a3"></path></g><g transform="translate(1864 1104)"><path d="M53.6 -37.3C62.3 -15.9 57.2 7.1 46 28.5C34.8 49.9 17.4 69.7 -2.7 71.2C-22.7 72.8 -45.5 56.1 -62.5 31.3C-79.6 6.6 -90.9 -26.2 -79.5 -49.2C-68.1 -72.3 -34.1 -85.5 -5.8 -82.2C22.4 -78.8 44.9 -58.8 53.6 -37.3Z" fill="#fbe5a3"></path></g><g transform="translate(1302 6297)"><path d="M49.9 -21.6C65.4 -2.1 79 25.7 70.4 47.4C61.7 69.1 30.9 84.8 7.2 80.6C-16.5 76.5 -33.1 52.6 -46.5 28.1C-59.9 3.6 -70.1 -21.4 -61.9 -36.8C-53.6 -52.2 -26.8 -58.1 -4.8 -55.3C17.2 -52.5 34.5 -41.2 49.9 -21.6Z" fill="#fbe5a3"></path></g><g transform="translate(1558 3107)"><path d="M62.7 -39.1C74.1 -16.5 71.2 11.4 58.3 33.3C45.5 55.1 22.7 70.9 -1.8 71.9C-26.3 72.9 -52.6 59.2 -67.8 36C-83 12.8 -87.2 -20 -74.1 -43.6C-61 -67.2 -30.5 -81.6 -2.4 -80.2C25.7 -78.8 51.4 -61.7 62.7 -39.1Z" fill="#fbe5a3"></path></g><g transform="translate(1649 6834)"><path d="M63.8 -40.6C75.4 -16.8 72.4 11.7 59.4 39.3C46.4 67 23.2 93.8 -3.2 95.7C-29.7 97.5 -59.3 74.5 -72.8 46.6C-86.2 18.8 -83.4 -13.9 -68.6 -39.6C-53.7 -65.4 -26.9 -84.2 -0.4 -84C26.1 -83.8 52.2 -64.5 63.8 -40.6Z" fill="#fbe5a3"></path></g><g transform="translate(715 278)"><path d="M45.6 -30.7C54.8 -10.4 55 10.8 45.9 27.9C36.8 45.1 18.4 58.3 1.1 57.6C-16.2 57 -32.4 42.5 -44.4 23.7C-56.4 4.9 -64.2 -18.3 -56.1 -38C-48 -57.7 -24 -74 -2.9 -72.3C18.2 -70.6 36.4 -51.1 45.6 -30.7Z" fill="#fbe5a3"></path></g><g transform="translate(638 1887)"><path d="M47.4 -36.5C57.5 -9.8 59 12.6 49.7 32.8C40.4 53.1 20.2 71.2 0.7 70.8C-18.7 70.4 -37.5 51.4 -54.6 26.6C-71.7 1.9 -87.1 -28.7 -77.8 -54.9C-68.4 -81.1 -34.2 -102.9 -7.8 -98.4C18.6 -93.9 37.3 -63.1 47.4 -36.5Z" fill="#fbe5a3"></path></g><g transform="translate(341 3974)"><path d="M51.3 -29.6C62.4 -10.3 64.7 14.1 54.6 30.9C44.6 47.6 22.3 56.5 -2.5 58C-27.3 59.4 -54.7 53.4 -63.3 37.5C-71.9 21.6 -61.8 -4.1 -48.2 -24.9C-34.5 -45.7 -17.2 -61.4 1.4 -62.3C20.1 -63.1 40.2 -48.9 51.3 -29.6Z" fill="#fbe5a3"></path></g><g transform="translate(237 7372)"><path d="M80.1 -39.2C97 -16.8 99.4 21 83.6 43.8C67.9 66.6 33.9 74.4 4.9 71.6C-24.2 68.8 -48.4 55.3 -61 34.3C-73.7 13.3 -74.8 -15.2 -62.7 -34.8C-50.6 -54.4 -25.3 -65 3.1 -66.8C31.6 -68.6 63.1 -61.6 80.1 -39.2Z" fill="#fbe5a3"></path></g><g transform="translate(576 2823)"><path d="M50 -31.3C57.7 -15.5 52 5.6 41.4 20.9C30.8 36.2 15.4 45.7 -5.5 48.9C-26.5 52.1 -53 49 -68 31.2C-82.9 13.4 -86.2 -19.2 -73 -38.1C-59.7 -57.1 -29.9 -62.5 -4.4 -60C21.2 -57.5 42.3 -47.1 50 -31.3Z" fill="#fbe5a3"></path></g><g transform="translate(1080 7379)"><path d="M64.3 -31.5C77.7 -13.8 79.1 16.4 66.4 37.4C53.7 58.5 26.9 70.5 -1.9 71.6C-30.7 72.8 -61.5 63 -76.9 40.3C-92.4 17.6 -92.5 -17.9 -77.2 -36.7C-61.8 -55.5 -30.9 -57.5 -2.7 -56C25.4 -54.4 50.8 -49.2 64.3 -31.5Z" fill="#fbe5a3"></path></g><g transform="translate(984 6669)"><path d="M52.8 -27.5C63.3 -12.4 63.1 12 52.5 31C41.9 50.1 20.9 63.9 1.2 63.2C-18.6 62.5 -37.2 47.4 -50.9 26.5C-64.6 5.7 -73.5 -20.9 -64.2 -35.4C-54.8 -49.9 -27.4 -52.2 -3.1 -50.4C21.2 -48.6 42.3 -42.6 52.8 -27.5Z" fill="#fbe5a3"></path></g><g transform="translate(1346 222)"><path d="M62.5 -35.7C76.8 -11.2 81.5 19.3 69.5 37.7C57.5 56 28.7 62.3 1.4 61.5C-26 60.7 -52 52.9 -62.4 35.5C-72.7 18.1 -67.4 -8.9 -54.4 -32.6C-41.4 -56.3 -20.7 -76.9 1.7 -77.9C24 -78.8 48.1 -60.2 62.5 -35.7Z" fill="#fbe5a3"></path></g><g transform="translate(295 1000)"><path d="M59.9 -40.4C69.6 -17.8 63.9 7.9 51.3 32.2C38.7 56.5 19.4 79.4 1.5 78.6C-16.4 77.7 -32.8 53.1 -40.5 31.6C-48.1 10.1 -47 -8.2 -38.8 -29.9C-30.6 -51.7 -15.3 -76.8 4.9 -79.7C25.1 -82.5 50.3 -63 59.9 -40.4Z" fill="#fbe5a3"></path></g><g transform="translate(735 6948)"><path d="M58.8 -31.2C70.9 -13.1 71.6 14.3 59.9 34.3C48.2 54.2 24.1 66.7 -1.6 67.6C-27.2 68.5 -54.5 57.8 -67.4 37.2C-80.3 16.5 -78.8 -14.1 -65.2 -33.1C-51.6 -52 -25.8 -59.4 -1.2 -58.7C23.4 -58 46.8 -49.3 58.8 -31.2Z" fill="#fbe5a3"></path></g><g transform="translate(258 5762)"><path d="M78.4 -36.5C96.2 -14.5 101.4 23.5 86.2 46.6C71.1 69.7 35.5 77.8 5.2 74.8C-25.1 71.8 -50.3 57.7 -66.5 34C-82.7 10.3 -90 -22.9 -77.4 -41.9C-64.8 -60.8 -32.4 -65.5 -1 -64.9C30.3 -64.3 60.6 -58.4 78.4 -36.5Z" fill="#fbe5a3"></path></g><g transform="translate(1653 861)"><path d="M53.7 -29.7C69.3 -4.1 81.3 24.9 71.8 42.8C62.2 60.7 31.1 67.6 0.6 67.2C-29.9 66.9 -59.8 59.3 -68.7 41.8C-77.5 24.3 -65.3 -3.1 -50.3 -28.5C-35.4 -53.8 -17.7 -76.9 0.7 -77.3C19.1 -77.7 38.2 -55.4 53.7 -29.7Z" fill="#fbe5a3"></path></g><g transform="translate(1623 3580)"><path d="M69.2 -41.5C81.7 -18.2 78.5 12.7 64.4 36C50.2 59.3 25.1 75.1 2.9 73.4C-19.4 71.7 -38.8 52.7 -54.1 28.7C-69.5 4.6 -80.8 -24.3 -71.1 -45.9C-61.5 -67.6 -30.7 -81.9 -1.2 -81.2C28.3 -80.5 56.6 -64.8 69.2 -41.5Z" fill="#fbe5a3"></path></g><g transform="translate(1514 1576)"><path d="M74.6 -42.1C86.2 -23.1 77.7 8.4 61.9 28.8C46.1 49.2 23.1 58.5 -0.1 58.6C-23.3 58.7 -46.7 49.6 -58.9 31.2C-71.2 12.8 -72.4 -14.8 -60.7 -33.9C-49 -53 -24.5 -63.6 3.5 -65.6C31.6 -67.6 63.1 -61.1 74.6 -42.1Z" fill="#fbe5a3"></path></g><g transform="translate(733 3323)"><path d="M77 -51.4C87.7 -26 75.8 5.5 59.3 33.7C42.7 61.8 21.3 86.7 1.2 86.1C-19 85.4 -38 59.1 -54.8 30.8C-71.7 2.5 -86.4 -27.9 -76.9 -52.7C-67.4 -77.5 -33.7 -96.6 -0.3 -96.4C33.2 -96.3 66.4 -76.9 77 -51.4Z" fill="#fbe5a3"></path></g><g transform="translate(159 4879)"><path d="M61.7 -35.9C69.9 -21.2 59.8 3.7 46.5 26.6C33.2 49.4 16.6 70.1 -2.4 71.5C-21.3 72.8 -42.6 54.8 -54.4 32.9C-66.2 10.9 -68.6 -15 -57.9 -31C-47.3 -47 -23.6 -53.1 1.5 -53.9C26.7 -54.8 53.4 -50.5 61.7 -35.9Z" fill="#fbe5a3"></path></g><g transform="translate(1261 4377)"><path d="M49.2 -28.3C58.6 -12.1 57.5 10.2 47.6 30.8C37.6 51.3 18.8 70.1 -3.3 72C-25.3 73.8 -50.6 58.8 -64.5 36C-78.3 13.2 -80.7 -17.4 -68 -35.4C-55.4 -53.4 -27.7 -58.9 -3.9 -56.7C19.9 -54.4 39.8 -44.5 49.2 -28.3Z" fill="#fbe5a3"></path></g><g transform="translate(1358 3411)"><path d="M78.5 -47.4C91.9 -22.2 85.9 12 69.6 33.9C53.3 55.8 26.7 65.4 -2.2 66.6C-31 67.9 -62 60.8 -77.2 39.5C-92.4 18.3 -91.8 -17.2 -76.3 -43.6C-60.8 -70.1 -30.4 -87.5 1.1 -88.1C32.6 -88.7 65.2 -72.6 78.5 -47.4Z" fill="#fbe5a3"></path></g><g transform="translate(1013 4834)"><path d="M43.7 -29.1C52.4 -10.2 52.4 10 43.6 29.2C34.9 48.4 17.4 66.6 -1.7 67.6C-20.9 68.6 -41.8 52.4 -53.3 31.6C-64.8 10.8 -66.9 -14.5 -56.5 -34.5C-46 -54.5 -23 -69.1 -2.8 -67.5C17.5 -65.9 35 -48.1 43.7 -29.1Z" fill="#fbe5a3"></path></g><g transform="translate(728 1079)"><path d="M54.4 -27.1C70.6 -3.5 83.7 26.2 74.1 45.3C64.6 64.3 32.3 72.8 0.7 72.4C-31 72 -61.9 62.8 -79.3 39.2C-96.7 15.7 -100.5 -22.3 -85 -45.5C-69.5 -68.8 -34.8 -77.3 -7.8 -72.8C19.1 -68.3 38.3 -50.7 54.4 -27.1Z" fill="#fbe5a3"></path></g><g transform="translate(1218 621)"><path d="M37.6 -27.9C45.2 -8.4 45.6 9.1 38.1 28.7C30.7 48.4 15.3 70.2 -6.1 73.7C-27.6 77.3 -55.2 62.5 -63.6 42.3C-72.1 22.1 -61.3 -3.5 -47.5 -26.6C-33.7 -49.7 -16.9 -70.2 -1 -69.6C14.9 -69.1 29.9 -47.5 37.6 -27.9Z" fill="#fbe5a3"></path></g></g></svg>