<svg id="visual" viewBox="0 0 1900 8000" width="1900" height="8000" xmlns="http://www.w3.org/2000/svg" xmlns:xlink="http://www.w3.org/1999/xlink" version="1.1"><g><g transform="translate(1095 4896)"><path d="M352.2 -214C408.3 -106.2 372.3 44 298.3 158.4C224.2 272.8 112.1 351.5 1.1 350.9C-110 350.3 -220 270.4 -283.4 162.2C-346.7 53.9 -363.3 -82.7 -308.3 -189.9C-253.3 -297.1 -126.7 -374.9 10.7 -381C148.1 -387.2 296.1 -321.8 352.2 -214Z" fill="#aae6d2"></path></g><g transform="translate(828 3504)"><path d="M284.6 -143.8C348.6 -53.5 366.4 84.2 311.2 195.9C256.1 307.6 128 393.4 1 392.8C-126 392.2 -252 305.2 -325.9 182.7C-399.8 60.2 -421.6 -97.9 -358.6 -187.6C-295.6 -277.4 -147.8 -298.8 -18.7 -287.9C110.3 -277.1 220.6 -234.1 284.6 -143.8Z" fill="#aae6d2"></path></g><g transform="translate(921 2207)"><path d="M408.9 -212C488.9 -97.5 484.5 89.8 402.2 202.4C320 315 160 352.9 -4.5 355.5C-169 358.1 -338.1 325.5 -408.4 219.7C-478.7 114 -450.2 -64.8 -365.7 -181.9C-281.2 -299 -140.6 -354.4 11.9 -361.3C164.4 -368.2 328.9 -326.5 408.9 -212Z" fill="#aae6d2"></path></g><g transform="translate(1197 803)"><path d="M323.9 -193C386.9 -78 382.3 70 317 189.2C251.8 308.4 125.9 398.6 7.6 394.2C-110.6 389.8 -221.3 290.7 -258.5 187.7C-295.8 84.7 -259.6 -22.2 -204.3 -132.8C-149 -243.4 -74.5 -357.7 28 -373.9C130.5 -390.1 261 -308 323.9 -193Z" fill="#aae6d2"></path></g><g transform="translate(772 7134)"><path d="M267.5 -186.9C307 -86.1 272 25.4 215 119.2C158 213.1 79 289.4 -1.4 290.2C-81.8 291 -163.6 216.4 -208.6 129.4C-253.6 42.5 -261.8 -56.7 -220.9 -158.3C-180 -259.9 -90 -363.9 12 -370.9C114 -377.8 228.1 -287.7 267.5 -186.9Z" fill="#aae6d2"></path></g></g></svg>