<svg id="visual" viewBox="0 0 900 600" width="900" height="600" xmlns="http://www.w3.org/2000/svg" xmlns:xlink="http://www.w3.org/1999/xlink" version="1.1"><path d="M284 0L278.2 20C272.3 40 260.7 80 257.2 120C253.7 160 258.3 200 262.3 240C266.3 280 269.7 320 269.7 360C269.7 400 266.3 440 268.5 480C270.7 520 278.3 560 282.2 580L286 600L0 600L0 580C0 560 0 520 0 480C0 440 0 400 0 360C0 320 0 280 0 240C0 200 0 160 0 120C0 80 0 40 0 20L0 0Z" fill="#ffcd32" stroke-linecap="round" stroke-linejoin="miter"></path></svg>