<svg id="visual" viewBox="0 0 900 600" width="900" height="600" xmlns="http://www.w3.org/2000/svg" xmlns:xlink="http://www.w3.org/1999/xlink" version="1.1"><path d="M233 0L239.2 20C245.3 40 257.7 80 266.5 120C275.3 160 280.7 200 270 240C259.3 280 232.7 320 214.8 360C197 400 188 440 200 480C212 520 245 560 261.5 580L278 600L0 600L0 580C0 560 0 520 0 480C0 440 0 400 0 360C0 320 0 280 0 240C0 200 0 160 0 120C0 80 0 40 0 20L0 0Z" fill="#8ccdc3" stroke-linecap="round" stroke-linejoin="miter"></path></svg>