<svg id="visual" viewBox="0 0 900 600" width="900" height="600" xmlns="http://www.w3.org/2000/svg" xmlns:xlink="http://www.w3.org/1999/xlink" version="1.1"><path d="M213 0L216.7 20C220.3 40 227.7 80 219 120C210.3 160 185.7 200 185 240C184.3 280 207.7 320 227.2 360C246.7 400 262.3 440 259.7 480C257 520 236 560 225.5 580L215 600L0 600L0 580C0 560 0 520 0 480C0 440 0 400 0 360C0 320 0 280 0 240C0 200 0 160 0 120C0 80 0 40 0 20L0 0Z" fill="#fbe5a3" stroke-linecap="round" stroke-linejoin="miter"></path></svg>