<svg id="visual" viewBox="0 0 900 600" width="900" height="600" xmlns="http://www.w3.org/2000/svg" xmlns:xlink="http://www.w3.org/1999/xlink" version="1.1"><path d="M184 0L195.8 20C207.7 40 231.3 80 237.2 120C243 160 231 200 216.8 240C202.7 280 186.3 320 190.5 360C194.7 400 219.3 440 232 480C244.7 520 245.3 560 245.7 580L246 600L0 600L0 580C0 560 0 520 0 480C0 440 0 400 0 360C0 320 0 280 0 240C0 200 0 160 0 120C0 80 0 40 0 20L0 0Z" fill="#aae6d2" stroke-linecap="round" stroke-linejoin="miter"></path></svg>