<svg id="visual" viewBox="0 0 900 600" width="900" height="600" xmlns="http://www.w3.org/2000/svg" xmlns:xlink="http://www.w3.org/1999/xlink" version="1.1"><path d="M265 0L255.5 20C246 40 227 80 231.7 120C236.3 160 264.7 200 260.3 240C256 280 219 320 197.2 360C175.3 400 168.7 440 185.7 480C202.7 520 243.3 560 263.7 580L284 600L0 600L0 580C0 560 0 520 0 480C0 440 0 400 0 360C0 320 0 280 0 240C0 200 0 160 0 120C0 80 0 40 0 20L0 0Z" fill="#fbe5a3" stroke-linecap="round" stroke-linejoin="miter"></path></svg>