<svg id="visual" viewBox="0 0 900 600" width="900" height="600" xmlns="http://www.w3.org/2000/svg" xmlns:xlink="http://www.w3.org/1999/xlink" version="1.1"><path d="M266 0L262.2 20C258.3 40 250.7 80 251.2 120C251.7 160 260.3 200 267.2 240C274 280 279 320 263.5 360C248 400 212 440 201.8 480C191.7 520 207.3 560 215.2 580L223 600L0 600L0 580C0 560 0 520 0 480C0 440 0 400 0 360C0 320 0 280 0 240C0 200 0 160 0 120C0 80 0 40 0 20L0 0Z" fill="#aae6d2" stroke-linecap="round" stroke-linejoin="miter"></path></svg>